<svg viewBox="0 0 200 200" xmlns="http://www.w3.org/2000/svg">
  <rect width="200" height="200" fill="#FFF0F5"/><circle cx="100" cy="65" r="36" fill="#DDA0DD"/><path d="M 70 58 Q 80 32 100 29 Q 120 32 130 58 Q 125 62 100 64 Q 75 62 70 58" fill="#DA70D6"/><circle cx="100" cy="97" r="42" fill="#EE82EE"/><circle cx="76" cy="83" r="6" fill="#333"/><circle cx="124" cy="83" r="6" fill="#333"/><circle cx="76" cy="83" r="2" fill="#9932CC"/><circle cx="124" cy="83" r="2" fill="#9932CC"/><path d="M 100 105 L 100 116" stroke="#333" stroke-width="2"/><path d="M 78 124 Q 100 131 122 124" stroke="#DA70D6" stroke-width="2.5" fill="none"/><polygon points="48,145 100,128 152,145" fill="#DDA0DD"/><rect x="44" y="145" width="112" height="50" rx="10" fill="#DA70D6"/><rect x="2" y="156" width="44" height="20" rx="10" fill="#EE82EE"/><rect x="154" y="156" width="44" height="20" rx="10" fill="#EE82EE"/><rect x="64" y="195" width="18" height="41" fill="#666"/><rect x="118" y="195" width="18" height="41" fill="#666"/><circle cx="85" cy="30" r="5" fill="#FFD700"/><circle cx="115" cy="30" r="5" fill="#FFD700"/>
</svg>
