<svg viewBox="0 0 200 200" xmlns="http://www.w3.org/2000/svg">
  <rect width="200" height="200" fill="#F0FFFF"/><circle cx="100" cy="60" r="36" fill="#20B2AA"/><path d="M 68 55 Q 78 30 100 28 Q 122 30 132 55 Q 128 58 100 60 Q 72 58 68 55" fill="#008B8B"/><circle cx="100" cy="94" r="42" fill="#AFEEEE"/><circle cx="76" cy="80" r="6" fill="#333"/><circle cx="124" cy="80" r="6" fill="#333"/><circle cx="76" cy="80" r="2" fill="#00CED1"/><circle cx="124" cy="80" r="2" fill="#00CED1"/><path d="M 100 102 L 100 112" stroke="#333" stroke-width="2"/><path d="M 80 120 Q 100 126 120 120" stroke="#00CED1" stroke-width="2.5" fill="none"/><rect x="48" y="137" width="104" height="52" rx="10" fill="#00CED1"/><rect x="5" y="148" width="43" height="18" rx="9" fill="#AFEEEE"/><rect x="152" y="148" width="43" height="18" rx="9" fill="#AFEEEE"/><rect x="68" y="189" width="16" height="39" fill="#333"/><rect x="116" y="189" width="16" height="39" fill="#333"/><circle cx="85" cy="32" r="4" fill="#00CED1"/><circle cx="115" cy="32" r="4" fill="#00CED1"/>
</svg>
